<svg xmlns="http://www.w3.org/2000/svg" width="150" viewBox="0 0 150 75" height="75" version="1.0"><defs><clipPath id="a"><path d="M 114.0625 14 L 125.875 14 L 125.875 25.484375 L 114.0625 25.484375 Z M 114.0625 14"/></clipPath><clipPath id="b"><path d="M 116 13.082031 L 123 13.082031 L 123 18 L 116 18 Z M 116 13.082031"/></clipPath></defs><g fill="#77B255"><g><g><path d="M 3.875 -2.59375 C 1.914062 -4.726562 0.9375 -7.347656 0.9375 -10.453125 C 0.9375 -13.554688 1.914062 -16.179688 3.875 -18.328125 C 5.84375 -20.484375 8.335938 -21.5625 11.359375 -21.5625 C 14.128906 -21.5625 16.414062 -20.691406 18.21875 -18.953125 L 18.21875 -35.125 L 25.453125 -35.125 L 25.453125 0 L 18.296875 0 L 18.296875 -2.375 L 18.21875 -2.375 C 16.414062 -0.382812 14.128906 0.609375 11.359375 0.609375 C 8.335938 0.609375 5.84375 -0.457031 3.875 -2.59375 Z M 10.03125 -14 C 9.09375 -13.082031 8.625 -11.898438 8.625 -10.453125 C 8.625 -9.015625 9.070312 -7.835938 9.96875 -6.921875 C 10.863281 -6.015625 12.046875 -5.5625 13.515625 -5.5625 C 14.929688 -5.5625 16.09375 -6.019531 17 -6.9375 C 17.914062 -7.863281 18.375 -9.035156 18.375 -10.453125 C 18.375 -11.898438 17.90625 -13.082031 16.96875 -14 C 16.03125 -14.925781 14.878906 -15.390625 13.515625 -15.390625 C 12.128906 -15.390625 10.96875 -14.925781 10.03125 -14 Z M 10.03125 -14" transform="translate(9.752 48.664)"/></g></g></g><g fill="#77B255"><g><g><path d="M 2.453125 0 L 2.453125 -20.953125 L 9.6875 -20.953125 L 9.6875 -17.9375 L 9.765625 -17.9375 C 9.816406 -18.039062 9.898438 -18.171875 10.015625 -18.328125 C 10.140625 -18.492188 10.40625 -18.78125 10.8125 -19.1875 C 11.226562 -19.601562 11.664062 -19.972656 12.125 -20.296875 C 12.59375 -20.628906 13.191406 -20.921875 13.921875 -21.171875 C 14.660156 -21.429688 15.410156 -21.5625 16.171875 -21.5625 C 16.960938 -21.5625 17.738281 -21.453125 18.5 -21.234375 C 19.257812 -21.015625 19.816406 -20.796875 20.171875 -20.578125 L 20.75 -20.265625 L 17.71875 -14.125 C 16.820312 -14.894531 15.570312 -15.28125 13.96875 -15.28125 C 13.09375 -15.28125 12.34375 -15.085938 11.71875 -14.703125 C 11.09375 -14.316406 10.648438 -13.851562 10.390625 -13.3125 C 10.128906 -12.769531 9.945312 -12.304688 9.84375 -11.921875 C 9.738281 -11.546875 9.6875 -11.25 9.6875 -11.03125 L 9.6875 0 Z M 2.453125 0" transform="translate(35.605 48.664)"/></g></g></g><g fill="#77B255"><g><g><path d="M 4.421875 -2.484375 C 2.097656 -4.554688 0.9375 -7.210938 0.9375 -10.453125 C 0.9375 -13.691406 2.144531 -16.351562 4.5625 -18.4375 C 6.988281 -20.519531 9.988281 -21.5625 13.5625 -21.5625 C 17.070312 -21.5625 20.03125 -20.515625 22.4375 -18.421875 C 24.851562 -16.328125 26.0625 -13.671875 26.0625 -10.453125 C 26.0625 -7.242188 24.882812 -4.597656 22.53125 -2.515625 C 20.175781 -0.429688 17.1875 0.609375 13.5625 0.609375 C 9.800781 0.609375 6.753906 -0.421875 4.421875 -2.484375 Z M 10.03125 -14 C 9.09375 -13.082031 8.625 -11.898438 8.625 -10.453125 C 8.625 -9.015625 9.070312 -7.835938 9.96875 -6.921875 C 10.863281 -6.015625 12.046875 -5.5625 13.515625 -5.5625 C 14.929688 -5.5625 16.09375 -6.019531 17 -6.9375 C 17.914062 -7.863281 18.375 -9.035156 18.375 -10.453125 C 18.375 -11.898438 17.90625 -13.082031 16.96875 -14 C 16.03125 -14.925781 14.878906 -15.390625 13.515625 -15.390625 C 12.128906 -15.390625 10.96875 -14.925781 10.03125 -14 Z M 10.03125 -14" transform="translate(53.903 48.664)"/></g></g></g><g fill="#77B255"><g><g><path d="M 24.015625 -18.359375 C 25.972656 -16.222656 26.953125 -13.601562 26.953125 -10.5 C 26.953125 -7.394531 25.972656 -4.765625 24.015625 -2.609375 C 22.054688 -0.460938 19.566406 0.609375 16.546875 0.609375 C 13.765625 0.609375 11.476562 -0.257812 9.6875 -2 L 9.6875 10.625 L 2.453125 10.625 L 2.453125 -20.953125 L 9.59375 -20.953125 L 9.59375 -18.578125 L 9.6875 -18.578125 C 11.476562 -20.566406 13.765625 -21.5625 16.546875 -21.5625 C 19.566406 -21.5625 22.054688 -20.492188 24.015625 -18.359375 Z M 17.859375 -6.9375 C 18.804688 -7.863281 19.28125 -9.046875 19.28125 -10.484375 C 19.28125 -11.929688 18.828125 -13.109375 17.921875 -14.015625 C 17.023438 -14.929688 15.84375 -15.390625 14.375 -15.390625 C 12.957031 -15.390625 11.789062 -14.925781 10.875 -14 C 9.96875 -13.082031 9.515625 -11.914062 9.515625 -10.5 C 9.515625 -9.050781 9.984375 -7.863281 10.921875 -6.9375 C 11.859375 -6.019531 13.007812 -5.5625 14.375 -5.5625 C 15.757812 -5.5625 16.921875 -6.019531 17.859375 -6.9375 Z M 17.859375 -6.9375" transform="translate(78.857 48.664)"/></g></g></g><g fill="#77B255"><g><g><path d="M 3.140625 -32.640625 C 3.984375 -33.484375 4.988281 -33.90625 6.15625 -33.90625 C 7.332031 -33.90625 8.34375 -33.484375 9.1875 -32.640625 C 10.03125 -31.796875 10.453125 -30.785156 10.453125 -29.609375 C 10.453125 -28.441406 10.03125 -27.4375 9.1875 -26.59375 C 8.34375 -25.75 7.332031 -25.328125 6.15625 -25.328125 C 4.988281 -25.328125 3.984375 -25.75 3.140625 -26.59375 C 2.296875 -27.4375 1.875 -28.441406 1.875 -29.609375 C 1.875 -30.785156 2.296875 -31.796875 3.140625 -32.640625 Z M 2.453125 -20.953125 L 2.453125 0 L 9.6875 0 L 9.6875 -20.953125 Z M 2.453125 -20.953125" transform="translate(113.818 48.664)"/></g></g></g><g fill="#77B255"><g><g><path d="M 3.671875 -20.953125 L 3.671875 -28.75 L 10.90625 -28.75 L 10.90625 -20.953125 L 15.3125 -20.953125 L 15.3125 -15.4375 L 10.90625 -15.4375 L 10.90625 -8.78125 C 10.90625 -6.84375 11.445312 -5.875 12.53125 -5.875 C 12.8125 -5.875 13.097656 -5.925781 13.390625 -6.03125 C 13.691406 -6.144531 13.925781 -6.257812 14.09375 -6.375 L 14.34375 -6.53125 L 16.140625 -0.6875 C 14.585938 0.175781 12.816406 0.609375 10.828125 0.609375 C 9.460938 0.609375 8.289062 0.375 7.3125 -0.09375 C 6.332031 -0.570312 5.585938 -1.210938 5.078125 -2.015625 C 4.578125 -2.828125 4.21875 -3.671875 4 -4.546875 C 3.78125 -5.429688 3.671875 -6.378906 3.671875 -7.390625 L 3.671875 -15.4375 L 0.65625 -15.4375 L 0.65625 -20.953125 Z M 3.671875 -20.953125" transform="translate(124.11 48.664)"/></g></g></g><g clip-path="url(#a)"><path fill="#FF5757" d="M 121.316406 14.902344 C 121.085938 14.902344 120.859375 14.925781 120.644531 14.964844 C 120.367188 14.929688 119.71875 14.886719 119.433594 14.886719 C 116.574219 14.886719 114.070312 15.980469 114.070312 19.8125 C 114.070312 22.925781 116.449219 25.453125 119.800781 25.453125 C 123.152344 25.453125 125.867188 22.925781 125.867188 19.8125 C 125.867188 15.9375 122.699219 14.902344 121.316406 14.902344 Z M 121.316406 14.902344"/></g><g clip-path="url(#b)"><path fill="#77B255" d="M 116.574219 13.09375 C 117.125 13.65625 117.507812 13.875 117.679688 14.785156 C 117.777344 15.324219 118.441406 15.304688 118.441406 15.304688 C 118.441406 15.304688 117.125 15.914062 116.574219 16.476562 C 116.574219 16.476562 118.230469 15.914062 118.78125 15.914062 C 118.78125 15.914062 119.886719 16.476562 119.886719 17.042969 C 119.886719 17.042969 119.886719 15.914062 119.335938 15.914062 C 119.335938 15.914062 120.992188 15.914062 120.992188 17.042969 C 120.992188 17.042969 120.992188 15.347656 120.441406 15.347656 C 120.441406 15.347656 122.097656 14.785156 122.648438 15.347656 C 122.648438 15.347656 122.082031 14.757812 120.992188 14.785156 C 120.992188 14.785156 121.546875 14.222656 122.648438 14.222656 C 122.648438 14.222656 120.867188 13.699219 120.3125 14.828125 C 120.3125 14.828125 119.84375 14.351562 120.78125 13.398438 C 120.78125 13.398438 119.335938 13.65625 119.335938 14.785156 C 119.335938 14.785156 118.8125 14.773438 118.441406 14.351562 C 117.722656 13.527344 116.574219 13.09375 116.574219 13.09375 Z M 116.574219 13.09375"/></g></svg>